<svg width="21" height="20" viewBox="0 0 21 20" fill="none" xmlns="http://www.w3.org/2000/svg">
<path d="M19.7127 8.69991L19.7114 8.69854L11.5521 0.539625C11.2043 0.191621 10.7419 0 10.2501 0C9.75829 0 9.29589 0.191504 8.94797 0.539469L0.792957 8.69425C0.790223 8.69698 0.787488 8.69987 0.784753 8.70265C0.0705398 9.42092 0.07179 10.5864 0.788269 11.3028C1.11557 11.6303 1.54792 11.82 2.01015 11.8398C2.0289 11.8417 2.04785 11.8426 2.06692 11.8426H2.3921V17.8471C2.3921 19.0353 3.35884 20.002 4.54732 20.002H7.73945C8.063 20.002 8.32544 19.7397 8.32544 19.416V14.7085C8.32544 14.1663 8.7665 13.7253 9.30871 13.7253H11.1915C11.7338 13.7253 12.1747 14.1664 12.1747 14.7085V19.416C12.1747 19.7397 12.4371 20.002 12.7607 20.002H15.9529C17.1414 20.002 18.1081 19.0353 18.1081 17.8471V11.8426H18.4097C18.9014 11.8426 19.3638 11.6511 19.7118 11.3032C20.4291 10.5855 20.4294 9.41807 19.7127 8.69991Z" fill="#0C448E"/>
</svg>
