<svg width="19" height="20" viewBox="0 0 19 20" fill="none" xmlns="http://www.w3.org/2000/svg">
<path d="M17.0912 7.15401H16.611V4.83648C16.611 4.82204 16.6087 4.80748 16.6068 4.79286C16.606 4.70082 16.5767 4.61047 16.5137 4.53887L12.6577 0.134126C12.6565 0.132995 12.6553 0.132594 12.6546 0.131463C12.6316 0.105674 12.6048 0.0843348 12.5764 0.0659869C12.568 0.06026 12.5596 0.0555544 12.5508 0.0506301C12.5262 0.0371615 12.5003 0.0262584 12.4734 0.0180926C12.4661 0.0160863 12.4596 0.0131317 12.4524 0.0112349C12.4229 0.00400077 12.3927 0.000230276 12.3624 0L2.88549 0C2.45276 0 2.10119 0.352039 2.10119 0.784328V7.15368H1.62101C1.00196 7.15368 0.5 7.65546 0.5 8.27473V14.1042C0.5 14.7231 1.00196 15.2252 1.62101 15.2252H2.10119V19.2157C2.10119 19.6481 2.45276 20 2.88549 20H15.8266C16.259 20 16.6109 19.6481 16.6109 19.2157V15.2252H17.0912C17.7101 15.2252 18.2121 14.7231 18.2121 14.1042V8.27495C18.2121 7.6555 17.7101 7.15401 17.0912 7.15401ZM2.88549 0.784328H11.9702V4.79712C11.9702 5.01376 12.1459 5.18925 12.3624 5.18925H15.8267V7.15394H2.88549V0.784328ZM10.9491 11.0681C10.9491 12.8106 9.8922 13.8676 8.33883 13.8676C6.76179 13.8676 5.83903 12.6769 5.83903 11.1627C5.83903 9.56944 6.85626 8.37884 8.42546 8.37884C10.058 8.37884 10.9491 9.60122 10.9491 11.0681ZM2.35278 13.7806V8.46576H3.55918V12.7715H5.6728V13.7804H2.35278V13.7806ZM15.8267 19.0031H2.88549V15.2252H15.8266V19.0031H15.8267ZM16.1784 13.5363C15.8077 13.6623 15.1059 13.8358 14.4041 13.8358C13.4342 13.8358 12.7323 13.5914 12.2432 13.1185C11.7546 12.6612 11.4863 11.967 11.4944 11.1864C11.5022 9.4196 12.7874 8.41021 14.5303 8.41021C15.2166 8.41021 15.7447 8.54473 16.0051 8.67062L15.7527 9.63251C15.4609 9.50641 15.0982 9.40388 14.5146 9.40388C13.5133 9.40388 12.7561 9.97171 12.7561 11.1232C12.7561 12.2193 13.4421 12.8657 14.4279 12.8657C14.7038 12.8657 14.9248 12.8346 15.0192 12.7872V11.6751H14.1992V10.7368H16.1784V13.5363Z" fill="#777777"/>
</svg>
