<svg width="21" height="20" viewBox="0 0 21 20" fill="none" xmlns="http://www.w3.org/2000/svg">
<path fill-rule="evenodd" clip-rule="evenodd" d="M6.9775 5.43C7.30269 5.07143 7.51678 4.62615 7.59379 4.14825C7.67079 3.67034 7.6074 3.18036 7.4113 2.73779C7.2152 2.29522 6.89483 1.9191 6.48909 1.65509C6.08335 1.39108 5.6097 1.25055 5.12563 1.25055C4.64156 1.25055 4.1679 1.39108 3.76216 1.65509C3.35642 1.9191 3.03605 2.29522 2.83995 2.73779C2.64385 3.18036 2.58045 3.67034 2.65746 4.14825C2.73447 4.62615 2.94856 5.07143 3.27375 5.43C3.17375 5.4825 3.07792 5.53917 2.98625 5.6C2.415 5.98125 2.04875 6.48 1.82 6.94125C1.54735 7.49684 1.39568 8.10396 1.375 8.7225V11.25C1.375 11.5815 1.5067 11.8995 1.74112 12.1339C1.97554 12.3683 2.29348 12.5 2.625 12.5H5.75C5.96881 12.056 6.25749 11.65 6.605 11.2975L6.58875 11.25H2.625V8.75C2.625 8.75 2.625 6.25 5.125 6.25C6.38375 6.25 7.00875 6.88375 7.31875 7.5125C7.6 7.195 7.935 6.925 8.31 6.7175C7.99465 6.17243 7.53308 5.72645 6.9775 5.43ZM5.125 5C5.45652 5 5.77446 4.86831 6.00888 4.63388C6.2433 4.39946 6.375 4.08152 6.375 3.75C6.375 3.41848 6.2433 3.10054 6.00888 2.86612C5.77446 2.6317 5.45652 2.5 5.125 2.5C4.79348 2.5 4.47554 2.6317 4.24112 2.86612C4.0067 3.10054 3.875 3.41848 3.875 3.75C3.875 4.08152 4.0067 4.39946 4.24112 4.63388C4.47554 4.86831 4.79348 5 5.125 5ZM17.625 12.5H14.5C14.2812 12.056 13.9925 11.65 13.645 11.2975L13.6613 11.25H17.625V8.75C17.625 8.75 17.625 6.25 15.125 6.25C13.8663 6.25 13.2413 6.88375 12.9312 7.5125C12.6485 7.19304 12.3132 6.92418 11.94 6.7175C12.2554 6.17243 12.7169 5.72645 13.2725 5.43C12.9473 5.07143 12.7332 4.62615 12.6562 4.14825C12.5792 3.67034 12.6426 3.18036 12.8387 2.73779C13.0348 2.29522 13.3552 1.9191 13.7609 1.65509C14.1666 1.39108 14.6403 1.25055 15.1244 1.25055C15.6084 1.25055 16.0821 1.39108 16.4878 1.65509C16.8936 1.9191 17.214 2.29522 17.4101 2.73779C17.6061 3.18036 17.6695 3.67034 17.5925 4.14825C17.5155 4.62615 17.3014 5.07143 16.9762 5.43C17.0763 5.4825 17.1721 5.53917 17.2638 5.6C17.835 5.98125 18.2013 6.48 18.43 6.94125C18.6986 7.48321 18.8503 8.07562 18.875 8.68V11.25C18.875 11.5815 18.7433 11.8995 18.5089 12.1339C18.2745 12.3683 17.9565 12.5 17.625 12.5ZM15.125 5C15.4565 5 15.7745 4.86831 16.0089 4.63388C16.2433 4.39946 16.375 4.08152 16.375 3.75C16.375 3.41848 16.2433 3.10054 16.0089 2.86612C15.7745 2.6317 15.4565 2.5 15.125 2.5C14.7935 2.5 14.4755 2.6317 14.2411 2.86612C14.0067 3.10054 13.875 3.41848 13.875 3.75C13.875 4.08152 14.0067 4.39946 14.2411 4.63388C14.4755 4.86831 14.7935 5 15.125 5Z" fill="#777777"/>
<path fill-rule="evenodd" clip-rule="evenodd" d="M12.625 10C12.625 10.6463 12.38 11.2363 11.9775 11.68C12.6073 12.0211 13.1154 12.5497 13.4313 13.1925C13.7049 13.7468 13.8563 14.3534 13.875 14.9713V17.5C13.875 17.8315 13.7433 18.1495 13.5089 18.3839C13.2745 18.6183 12.9565 18.75 12.625 18.75H7.625C7.29348 18.75 6.97554 18.6183 6.74112 18.3839C6.5067 18.1495 6.375 17.8315 6.375 17.5V14.9725C6.3756 14.9162 6.3781 14.8599 6.3825 14.8038C6.42339 14.2431 6.57193 13.6957 6.82 13.1913C7.1355 12.5486 7.64313 12.02 8.2725 11.6788C7.99992 11.378 7.80468 11.0153 7.70365 10.6222C7.60263 10.229 7.59887 9.81716 7.69268 9.42222C7.7865 9.02728 7.97507 8.66112 8.24211 8.35539C8.50915 8.04967 8.84662 7.81356 9.22535 7.66748C9.60409 7.52141 10.0127 7.46975 10.4159 7.51698C10.819 7.56421 11.2047 7.7089 11.5394 7.93856C11.8741 8.16821 12.1479 8.47592 12.337 8.83509C12.5262 9.19426 12.625 9.59408 12.625 10ZM7.625 15V17.5H12.625V15C12.625 15 12.625 12.5 10.125 12.5C7.625 12.5 7.625 15 7.625 15ZM11.375 10C11.375 10.3315 11.2433 10.6495 11.0089 10.8839C10.7745 11.1183 10.4565 11.25 10.125 11.25C9.79348 11.25 9.47554 11.1183 9.24112 10.8839C9.0067 10.6495 8.875 10.3315 8.875 10C8.875 9.66849 9.0067 9.35055 9.24112 9.11613C9.47554 8.88171 9.79348 8.75001 10.125 8.75001C10.4565 8.75001 10.7745 8.88171 11.0089 9.11613C11.2433 9.35055 11.375 9.66849 11.375 10Z" fill="#777777"/>
</svg>
